{
	"accessors":[{
		"bufferView":0,
		"type":"SCALAR",
		"byteOffset":0,
		"count":7368,
		"componentType":5123,
		"max":[2655],
		"min":[0]
	},
	{
		"bufferView":1,
		"type":"VEC3",
		"byteOffset":0,
		"count":2656,
		"componentType":5126,
		"max":[9.087564468383789,
		18.896867752075197,
		13.310432434082032],
		"min":[-37.424835205078128,
		-19.26848030090332,
		-17.220579147338868]
	},
	{
		"bufferView":1,
		"type":"VEC3",
		"byteOffset":12,
		"count":2656,
		"componentType":5126,
		"max":[1.0,
		1.0,
		1.0],
		"min":[-1.0,
		-1.0,
		-1.0]
	},
	{
		"bufferView":1,
		"type":"VEC2",
		"byteOffset":24,
		"count":2656,
		"componentType":5126,
		"max":[0.9646536707878113,
		0.9358892440795898],
		"min":[0.036452580243349078,
		0.10351946949958801]
	}],
	"asset":{
		"version":"2.0",
		"generator":"Created using the official Cinema 4D glTF Exporter 1.000x284978"
	},
	"scenes":[{
		"nodes":[0]
	}],
	"nodes":[{
		"name":"rober",
		"translation":[18.137653350830079,
		117.19636535644531,
		2.9355459213256838],
		"rotation":[0.0,
		0.0,
		0.0,
		-1.0],
		"scale":[1.0,
		1.0,
		1.0],
		"mesh":0
	}],
	"meshes":[{
		"name":"rober",
		"primitives":[{
			"attributes":{
				"POSITION":1,
				"NORMAL":2,
				"TEXCOORD_0":3
			},
			"indices":0,
			"material":0
		}]
	}],
	"bufferViews":[{
		"buffer":0,
		"byteOffset":0,
		"byteLength":14736,
		"target":34963
	},
	{
		"buffer":0,
		"byteOffset":14736,
		"byteLength":84992,
		"target":34962,
		"byteStride":32
	}],
	"buffers":[{
		"uri":"data:application/octet-stream;base64,",
		"byteLength":99728
	}],
	"materials":[{
		"pbrMetallicRoughness":{
			"baseColorFactor":[0.8,
			0.8,
			0.8,
			1.0],
			"metallicFactor":0.0,
			"roughnessFactor":0.5
		},
		"emissiveFactor":[0.0,
		0.0,
		0.0],
		"alphaMode":"OPAQUE",
		"doubleSided":false,
		"name":"Mat"
	}]
}