{
	"asset":{
		"generator":"Created using the official Cinema 4D glTF Exporter 1.000x284978",
		"version":"2.0"
	},
	"scenes":[{
		"nodes":[0]
	}],
	"nodes":[{
		"name":"Sphere",
		"translation":[0.994353711605072,
		264.7583923339844,
		-0.7278392910957336],
		"rotation":[0.0,
		0.0,
		0.0,
		-1.0],
		"scale":[1.0,
		1.0,
		1.0],
		"mesh":0
	}],
	"meshes":[{
		"name":"Sphere",
		"primitives":[{
			"attributes":{
				"POSITION":1,
				"NORMAL":2,
				"TEXCOORD_0":3
			},
			"indices":0,
			"material":0
		}]
	}],
	"accessors":[{
		"min":[0],
		"bufferView":0,
		"type":"SCALAR",
		"componentType":5123,
		"count":1248,
		"byteOffset":0,
		"max":[514]
	},
	{
		"min":[-8.953088760375977,
		-7.230780124664307,
		-9.013687133789063],
		"bufferView":1,
		"type":"VEC3",
		"componentType":5126,
		"count":515,
		"byteOffset":0,
		"max":[8.953088760375977,
		36.41874313354492,
		9.013687133789063]
	},
	{
		"min":[-0.9999999403953552,
		-1.0,
		-0.9999999403953552],
		"bufferView":1,
		"type":"VEC3",
		"componentType":5126,
		"count":515,
		"byteOffset":12,
		"max":[0.9999999403953552,
		1.0,
		0.9999999403953552]
	},
	{
		"min":[0.80992591381073,
		0.6697072982788086],
		"bufferView":1,
		"type":"VEC2",
		"componentType":5126,
		"count":515,
		"byteOffset":24,
		"max":[0.9302294254302979,
		0.7900108098983765]
	}],
	"bufferViews":[{
		"buffer":0,
		"byteOffset":0,
		"byteLength":2496,
		"target":34963
	},
	{
		"buffer":0,
		"byteOffset":2496,
		"byteLength":16480,
		"target":34962,
		"byteStride":32
	}],
	"buffers":[{
		"uri":"data:application/octet-stream;base64,",
		"byteLength":18976
	}],
	"materials":[{
		"pbrMetallicRoughness":{
			"baseColorFactor":[0.8,
			0.8,
			0.8,
			1.0],
			"metallicFactor":0.0,
			"roughnessFactor":0.5
		},
		"emissiveFactor":[0.0,
		0.0,
		0.0],
		"alphaMode":"OPAQUE",
		"doubleSided":false,
		"name":"Mat"
	}]
}