{
	"asset":{
		"generator":"Created using the official Cinema 4D glTF Exporter 1.000x284978",
		"version":"2.0"
	},
	"scenes":[{
		"nodes":[0]
	}],
	"nodes":[{
		"name":"Random",
		"mesh":0
	}],
	"meshes":[{
		"name":"Random",
		"primitives":[{
			"attributes":{
				"POSITION":1,
				"NORMAL":2,
				"TEXCOORD_0":3
			},
			"indices":0,
			"material":0
		}]
	}],
	"accessors":[{
		"min":[0],
		"bufferView":0,
		"type":"SCALAR",
		"componentType":5123,
		"count":53184,
		"byteOffset":0,
		"max":[10137]
	},
	{
		"min":[-102.37124633789063,
		-100.0,
		-101.67513275146485],
		"bufferView":1,
		"type":"VEC3",
		"componentType":5126,
		"count":10138,
		"byteOffset":0,
		"max":[100.0,
		100.0,
		100.51652526855469]
	},
	{
		"min":[-0.9999999403953552,
		-0.9999999403953552,
		-0.9999999403953552],
		"bufferView":1,
		"type":"VEC3",
		"componentType":5126,
		"count":10138,
		"byteOffset":12,
		"max":[0.9999999403953552,
		0.9999999403953552,
		0.9999999403953552]
	},
	{
		"min":[0.14714302122592927,
		0.021896395832300187],
		"bufferView":1,
		"type":"VEC2",
		"componentType":5126,
		"count":10138,
		"byteOffset":24,
		"max":[0.9670876264572144,
		0.26337146759033205]
	}],
	"bufferViews":[{
		"buffer":0,
		"byteOffset":0,
		"byteLength":106368,
		"target":34963
	},
	{
		"buffer":0,
		"byteOffset":106368,
		"byteLength":324416,
		"target":34962,
		"byteStride":32
	}],
	"buffers":[{
		"uri":"data:application/octet-stream;base64,",
		"byteLength":430784
	}],
	"materials":[{
		"pbrMetallicRoughness":{
			"baseColorFactor":[0.8,
			0.8,
			0.8,
			1.0],
			"metallicFactor":0.0,
			"roughnessFactor":0.5
		},
		"emissiveFactor":[0.0,
		0.0,
		0.0],
		"alphaMode":"OPAQUE",
		"doubleSided":false,
		"name":"Mat"
	}]
}