{
	"asset":{
		"version":"2.0",
		"generator":"Created using the official Cinema 4D glTF Exporter 1.000x284978"
	},
	"scenes":[{
		"nodes":[0]
	}],
	"buffers":[{
		"uri":"data:application/octet-stream;base64,",
		"byteLength":1017792
	}],
	"nodes":[{
		"name":"Push Apart",
		"mesh":0
	}],
	"meshes":[{
		"name":"Push Apart",
		"primitives":[{
			"attributes":{
				"POSITION":1,
				"NORMAL":2,
				"TEXCOORD_0":3
			},
			"indices":0
		}]
	}],
	"accessors":[{
		"bufferView":0,
		"type":"SCALAR",
		"byteOffset":0,
		"componentType":5123,
		"count":59616,
		"min":[0],
		"max":[28079]
	},
	{
		"bufferView":1,
		"type":"VEC3",
		"byteOffset":0,
		"componentType":5126,
		"count":28080,
		"min":[-800.4658813476563,
		-807.6277465820313,
		-804.7457885742188],
		"max":[807.0997314453125,
		803.6436157226563,
		806.7335815429688]
	},
	{
		"bufferView":1,
		"type":"VEC3",
		"byteOffset":12,
		"componentType":5126,
		"count":28080,
		"min":[-0.999996542930603,
		-0.9999996423721314,
		-0.9999875426292419],
		"max":[0.9999964833259583,
		0.9999996423721314,
		0.9999875426292419]
	},
	{
		"bufferView":1,
		"type":"VEC2",
		"byteOffset":24,
		"componentType":5126,
		"count":28080,
		"min":[-0.3065367043018341,
		-0.09533451497554779],
		"max":[1.3065367937088013,
		1.095334529876709]
	}],
	"bufferViews":[{
		"buffer":0,
		"byteOffset":0,
		"byteLength":119232,
		"target":34963
	},
	{
		"buffer":0,
		"byteOffset":119232,
		"byteLength":898560,
		"target":34962,
		"byteStride":32
	}]
}